<?xml version="1.0" encoding="UTF-8" standalone="no"?>
<!DOCTYPE svg PUBLIC "-//W3C//DTD SVG 1.1//EN" "http://www.w3.org/Graphics/SVG/1.1/DTD/svg11.dtd">
<svg version="1.1" xmlns="http://www.w3.org/2000/svg" xmlns:xlink="http://www.w3.org/1999/xlink" preserveAspectRatio="xMidYMid meet" viewBox="0 0 640 640" width="640" height="640"><defs><path d="M317.02 329.1L157.03 241.38L317.02 142.79L479.06 243L317.02 329.1Z" id="a6guGE1mHC"></path><path d="M317.02 329.1L157.03 241.38L317.02 142.79L479.06 243L317.02 329.1Z" id="bfr2QrmAv"></path><path d="M316.39 253.79L417.57 254.71L317.21 311.21L196.32 241.81L317.21 168.49L372.19 203.06L385.03 184.95L317.21 142.02L152.99 241.81L317.21 335.87L481.04 244.11L460.79 232.06L317.21 232.06L316.39 253.79Z" id="aH5Kn4zfL"></path><path d="M316.39 253.79L417.57 254.71L317.21 311.21L196.32 241.81L317.21 168.49L372.19 203.06L385.03 184.95L317.21 142.02L152.99 241.81L317.21 335.87L481.04 244.11L460.79 232.06L317.21 232.06L316.39 253.79Z" id="c1tcyUxVN"></path><path d="M316.39 253.79L417.57 254.71L317.21 311.21L196.32 241.81L317.21 168.49L372.19 203.06L385.03 184.95L317.21 142.02L152.99 241.81L317.21 335.87L481.04 244.11L460.79 232.06L317.21 232.06L316.39 253.79Z" id="c1sN3BovKi"></path><path d="M317.01 417.5L436.3 345.53L436.3 430.9L480.05 404.59L480.05 250.08L317.01 343.91L153.98 250.08L153.98 404.59L199.95 430.9L199.95 345.53L317.01 417.5Z" id="bqcZyXHnb"></path><path d="M317.01 417.5L436.3 345.53L436.3 430.9L480.05 404.59L480.05 250.08L317.01 343.91L153.98 250.08L153.98 404.59L199.95 430.9L199.95 345.53L317.01 417.5Z" id="d2Elk3VMaF"></path><path d="M317.92 497.01L388.47 457.5L388.47 425.1L317.92 463.2L248.78 425.1L248.08 457.5L317.92 497.01Z" id="bReKBGwk"></path><path d="M317.92 497.01L388.47 457.5L388.47 425.1L317.92 463.2L248.78 425.1L248.08 457.5L317.92 497.01Z" id="e2IyIAnehE"></path></defs><g><g><g><use xlink:href="#a6guGE1mHC" opacity="1" fill="#15f4ee" fill-opacity="0.95"></use><g><use xlink:href="#a6guGE1mHC" opacity="1" fill-opacity="0" stroke="#000000" stroke-width="1" stroke-opacity="0"></use></g></g><g><use xlink:href="#bfr2QrmAv" opacity="1" fill="#000000" fill-opacity="0"></use><g><use xlink:href="#bfr2QrmAv" opacity="1" fill-opacity="0" stroke="#000000" stroke-width="1" stroke-opacity="0"></use></g></g><g><use xlink:href="#aH5Kn4zfL" opacity="1" fill="#000000" fill-opacity="1"></use><g><use xlink:href="#aH5Kn4zfL" opacity="1" fill-opacity="0" stroke="#000000" stroke-width="1" stroke-opacity="0"></use></g></g><g><use xlink:href="#c1tcyUxVN" opacity="1" fill="#000000" fill-opacity="0"></use><g><use xlink:href="#c1tcyUxVN" opacity="1" fill-opacity="0" stroke="#000000" stroke-width="1" stroke-opacity="0"></use></g></g><g><use xlink:href="#c1sN3BovKi" opacity="1" fill="#ad3838" fill-opacity="0"></use><g><use xlink:href="#c1sN3BovKi" opacity="1" fill-opacity="0" stroke="#000000" stroke-width="1" stroke-opacity="0"></use></g></g><g><use xlink:href="#bqcZyXHnb" opacity="1" fill="#39ff14" fill-opacity="1"></use><g><use xlink:href="#bqcZyXHnb" opacity="1" fill-opacity="0" stroke="#000000" stroke-width="1" stroke-opacity="0"></use></g></g><g><use xlink:href="#d2Elk3VMaF" opacity="1" fill="#000000" fill-opacity="0"></use><g><use xlink:href="#d2Elk3VMaF" opacity="1" fill-opacity="0" stroke="#000000" stroke-width="1" stroke-opacity="0"></use></g></g><g><use xlink:href="#bReKBGwk" opacity="1" fill="#fe53bb" fill-opacity="1"></use><g><use xlink:href="#bReKBGwk" opacity="1" fill-opacity="0" stroke="#000000" stroke-width="1" stroke-opacity="0"></use></g></g><g><use xlink:href="#e2IyIAnehE" opacity="1" fill="#000000" fill-opacity="0"></use><g><use xlink:href="#e2IyIAnehE" opacity="1" fill-opacity="0" stroke="#000000" stroke-width="1" stroke-opacity="0"></use></g></g></g></g></svg>